<svg width="200px" height="200px" viewBox="0 0 500 200" version="1.1" xmlns="http://www.w3.org/2000/svg" xmlns:xlink= "http://www.w3.org/1999/xlink"><g transform="translate(-202,-134)"><g></g><g><g style="visibility: visible;" transform="translate(0.5,0.5)"><rect x="213.4" y="144.48" width="68.8" height="34.4" rx="5.16" ry="5.16" fill="white" stroke="black" transform="translate(1.72,2.58)" opacity="1"></rect></g><g style="visibility: visible;"><g fill="black" font-family="Arial,Helvetica" text-anchor="middle" font-size="9.459999999999999px"><text x="247.3" y="164.19">3D View</text></g></g><g style="visibility: visible;" transform="translate(0.5,0.5)"><rect x="462.8" y="144.48" width="68.8" height="34.4" rx="5.16" ry="5.16" fill="white" stroke="black" transform="translate(1.72,2.58)" opacity="1"></rect></g><g style="visibility: visible;"><g fill="black" font-family="Arial,Helvetica" text-anchor="middle" font-size="9.459999999999999px"><text x="496.7" y="164.19">2D View</text></g></g><g style="visibility: visible;" transform="translate(0.5,0.5)"><path d="M 282.2 153.08 L 364.4 153.08 Q 373 153.08 381.6 153.08 L 457.33 153.08" fill="none" stroke="black" stroke-miterlimit="10" pointer-events="stroke" visibility="hidden" stroke-width="9"></path><path d="M 282.2 153.08 L 364.4 153.08 Q 373 153.08 381.6 153.08 L 457.33 153.08" fill="none" stroke="#36393d" stroke-miterlimit="10"></path><path d="M 461.84 153.08 L 455.82 156.09 L 457.33 153.08 L 455.82 150.07 Z" fill="#36393d" stroke="#36393d" stroke-miterlimit="10" pointer-events="all"></path></g><g><g fill="black" font-family="Arial,Helvetica" text-anchor="middle" font-size="8.6px"><rect fill="white" stroke="none" x="324" y="147" width="96" height="10" stroke-width="0"></rect><text x="372.2" y="155.66">Click 2D/3D View Toggle</text></g></g><g style="visibility: visible;" transform="translate(0.5,0.5)"><path d="M 462.8 170.28 L 381.1 170.28 Q 372.5 170.28 363.9 170.28 L 287.68 170.28" fill="none" stroke="black" stroke-miterlimit="10" pointer-events="stroke" visibility="hidden" stroke-width="9"></path><path d="M 462.8 170.28 L 381.1 170.28 Q 372.5 170.28 363.9 170.28 L 287.68 170.28" fill="none" stroke="#36393d" stroke-miterlimit="10"></path><path d="M 283.17 170.28 L 289.19 167.27 L 287.68 170.28 L 289.19 173.29 Z" fill="#36393d" stroke="#36393d" stroke-miterlimit="10" pointer-events="all"></path></g><g><g fill="black" font-family="Arial,Helvetica" text-anchor="middle" font-size="8.6px"><rect fill="white" stroke="none" x="324" y="164" width="96" height="10" stroke-width="0"></rect><text x="372.8" y="172.86">Click 2D/3D View Toggle</text></g></g><g style="visibility: visible;" transform="translate(0.5,0.5)"><rect x="213.4" y="230.48" width="68.8" height="34.4" rx="5.16" ry="5.16" fill="white" stroke="black" transform="translate(1.72,2.58)" opacity="1"></rect></g><g style="visibility: visible;"><g fill="black" font-family="Arial,Helvetica" text-anchor="middle" font-size="9.459999999999999px"><text x="247.3" y="250.19">Map View</text></g></g><g style="visibility: visible;" transform="translate(0.5,0.5)"><rect x="462.8" y="230.48" width="68.8" height="34.4" rx="5.16" ry="5.16" fill="white" stroke="black" transform="translate(1.72,2.58)" opacity="1"></rect></g><g><g fill="black" font-family="Arial,Helvetica" text-anchor="middle" font-size="9.459999999999999px"><text x="496.7" y="250.19">Satellite View</text></g></g><g style="visibility: visible;" transform="translate(0.5,0.5)"><path d="M 282.2 239.08 L 364.4 239.08 Q 373 239.08 381.6 239.08 L 457.33 239.08" fill="none" stroke="black" stroke-miterlimit="10" pointer-events="stroke" visibility="hidden" stroke-width="9"></path><path d="M 282.2 239.08 L 364.4 239.08 Q 373 239.08 381.6 239.08 L 457.33 239.08" fill="none" stroke="#36393d" stroke-miterlimit="10"></path><path d="M 461.84 239.08 L 455.82 242.09 L 457.33 239.08 L 455.82 236.07 Z" fill="#36393d" stroke="#36393d" stroke-miterlimit="10" pointer-events="all"></path></g><g><g fill="black" font-family="Arial,Helvetica" text-anchor="middle" font-size="8.6px"><rect fill="white" stroke="none" x="326" y="233" width="91" height="10" stroke-width="0"></rect><text x="372.2" y="241.66">Click View Style Toggle</text></g></g><g style="visibility: visible;" transform="translate(0.5,0.5)"><path d="M 462.8 256.28 L 381.6 256.28 Q 373 256.28 364.4 256.28 L 287.68 256.28" fill="none" stroke="black" stroke-miterlimit="10" pointer-events="stroke" visibility="hidden" stroke-width="9"></path><path d="M 462.8 256.28 L 381.6 256.28 Q 373 256.28 364.4 256.28 L 287.68 256.28" fill="none" stroke="#36393d" stroke-miterlimit="10"></path><path d="M 283.17 256.28 L 289.19 253.27 L 287.68 256.28 L 289.19 259.29 Z" fill="#36393d" stroke="#36393d" stroke-miterlimit="10" pointer-events="all"></path></g><g><g fill="black" font-family="Arial,Helvetica" text-anchor="middle" font-size="8.6px"><rect fill="white" stroke="none" x="327" y="250" width="91" height="10" stroke-width="0"></rect><text x="372.8" y="258.86">Click View Style Toggle</text></g></g></g><g></g><g></g></g></svg>
