<?xml version="1.0" encoding="utf-8"?>
<!-- Generator: Adobe Illustrator 16.0.0, SVG Export Plug-In . SVG Version: 6.00 Build 0)  -->
<!DOCTYPE svg PUBLIC "-//W3C//DTD SVG 1.1//EN" "http://www.w3.org/Graphics/SVG/1.1/DTD/svg11.dtd">
<svg version="1.1" id="Layer_1" xmlns="http://www.w3.org/2000/svg" xmlns:xlink="http://www.w3.org/1999/xlink" x="0px" y="0px"
	 width="492px" height="331px" viewBox="0 0 492 331" enable-background="new 0 0 492 331" xml:space="preserve">
<text transform="matrix(1 0 0 1 138.166 66.4683)" font-family="'MyriadPro-Regular'" font-size="20.8506">User issues a command</text>
<text transform="matrix(1 0 0 1 158.3398 268.8643)" font-family="'MyriadPro-Regular'" font-size="19.087">Computer completes</text>
<text transform="matrix(1 0 0 1 158.3398 291.7686)" font-family="'MyriadPro-Regular'" font-size="19.087">commanded task</text>
<circle fill="none" stroke="#000000" stroke-miterlimit="10" cx="86.995" cy="162.167" r="66.167"/>
<circle fill="none" stroke="#000000" stroke-miterlimit="10" cx="388.991" cy="162.167" r="66.167"/>
<text transform="matrix(1 0 0 1 46.1616 165.5)" font-family="'MyriadPro-Regular'" font-size="25.7999">Prompt</text>
<text transform="matrix(1 0 0 1 345.1641 165.499)" font-family="'MyriadPro-Regular'" font-size="22.1403">Execution</text>
<path fill="none" d="M86.995,89.333C86.995,68.698,155.8,52,240.829,52"/>
<path fill="none" d="M-102.838-7.667c0,0-0.149,0-0.333,0"/>
<g>
	<path fill="none" stroke="#000000" stroke-width="2" stroke-miterlimit="10" d="M86.995,89.643
		c0-44.307,62.245-80.159,139.167-80.159"/>
	<path fill="none" stroke="#000000" stroke-width="2" stroke-miterlimit="10" d="M388.991,89.643
		c0-44.307-72.828-80.159-162.829-80.159"/>
	<line fill="none" stroke="#000000" stroke-width="2" stroke-miterlimit="10" x1="388.991" y1="89.643" x2="376.495" y2="73.925"/>
	<line fill="none" stroke="#000000" stroke-width="2" stroke-miterlimit="10" x1="397.233" y1="66.468" x2="388.105" y2="92"/>
</g>
<g>
	<path fill="none" stroke="#000000" stroke-width="2" stroke-miterlimit="10" d="M386.255,231.012
		c0,49.365-62.245,89.313-139.167,89.313"/>
	<path fill="none" stroke="#000000" stroke-width="2" stroke-miterlimit="10" d="M84.259,231.012
		c0,49.365,72.828,89.313,162.829,89.313"/>
	<line fill="none" stroke="#000000" stroke-width="2" stroke-miterlimit="10" x1="84.259" y1="231.012" x2="96.755" y2="248.521"/>
	<line fill="none" stroke="#000000" stroke-width="2" stroke-miterlimit="10" x1="76.017" y1="256.834" x2="85.145" y2="228.385"/>
</g>
</svg>
